<svg width="60" height="60" viewBox="0 0 60 60" fill="none" xmlns="http://www.w3.org/2000/svg">
<g clip-path="url(#clip0_104_2)">
<path fill-rule="evenodd" clip-rule="evenodd" d="M0 30C0 13.4315 13.4315 0 30 0C46.5685 0 60 13.4315 60 30C60 46.5685 46.5685 60 30 60C13.4315 60 0 46.5685 0 30ZM30.0015 14C25.6561 14 25.1108 14.019 23.4041 14.0966C21.7008 14.1746 20.5381 14.4444 19.5208 14.84C18.4684 15.2486 17.5758 15.7954 16.6864 16.685C15.7964 17.5744 15.2496 18.467 14.8396 19.519C14.443 20.5367 14.173 21.6998 14.0964 23.4024C14.02 25.1091 14 25.6547 14 30.0001C14 34.3455 14.0194 34.8893 14.0966 36.5959C14.175 38.2993 14.4446 39.4619 14.84 40.4793C15.249 41.5316 15.7956 42.4243 16.6854 43.3136C17.5744 44.2036 18.467 44.7516 19.5187 45.1604C20.5368 45.556 21.6997 45.8256 23.4027 45.9036C25.1095 45.9814 25.6545 46.0004 29.9995 46.0004C34.3453 46.0004 34.8889 45.9814 36.5956 45.9036C38.2989 45.8256 39.4629 45.556 40.481 45.1604C41.533 44.7516 42.4243 44.2036 43.3133 43.3136C44.2033 42.4243 44.75 41.5316 45.16 40.4796C45.5534 39.4619 45.8234 38.2989 45.9034 36.5963C45.98 34.8895 46 34.3455 46 30.0001C46 25.6547 45.98 25.1095 45.9034 23.4027C45.8234 21.6994 45.5534 20.5368 45.16 19.5194C44.75 18.467 44.2033 17.5744 43.3133 16.685C42.4233 15.795 41.5333 15.2484 40.48 14.84C39.4599 14.4444 38.2966 14.1746 36.5932 14.0966C34.8865 14.019 34.3433 14 29.9965 14H30.0015Z" fill="#3D786E"/>
<path fill-rule="evenodd" clip-rule="evenodd" d="M28.5661 16.8834C28.9921 16.8828 29.4675 16.8834 30.0015 16.8834C34.2735 16.8834 34.7799 16.8988 36.4669 16.9754C38.0269 17.0468 38.8736 17.3074 39.4376 17.5264C40.1843 17.8164 40.7166 18.163 41.2763 18.723C41.8363 19.283 42.183 19.8164 42.4736 20.5631C42.6926 21.1264 42.9536 21.9731 43.0246 23.5331C43.1013 25.2198 43.118 25.7265 43.118 29.9965C43.118 34.2665 43.1013 34.7733 43.0246 36.4599C42.9533 38.0199 42.6926 38.8666 42.4736 39.4299C42.1836 40.1766 41.8363 40.7083 41.2763 41.268C40.7163 41.828 40.1846 42.1746 39.4376 42.4646C38.8743 42.6846 38.0269 42.9446 36.4669 43.016C34.7803 43.0926 34.2735 43.1093 30.0015 43.1093C25.7291 43.1093 25.2228 43.0926 23.5361 43.016C21.9761 42.944 21.1294 42.6833 20.5651 42.4643C19.8184 42.1743 19.285 41.8276 18.725 41.2676C18.165 40.7076 17.8184 40.1756 17.5278 39.4286C17.3088 38.8653 17.0478 38.0186 16.9768 36.4586C16.9 34.7719 16.8848 34.2653 16.8848 29.9925C16.8848 25.7198 16.9 25.2158 16.9768 23.5291C17.048 21.9691 17.3088 21.1224 17.5278 20.5584C17.8178 19.8118 18.165 19.2784 18.725 18.7184C19.285 18.1584 19.8184 17.8118 20.5651 17.521C21.1291 17.301 21.9761 17.041 23.5361 16.9694C25.0121 16.9028 25.5841 16.8828 28.5661 16.8794V16.8834ZM38.5423 19.54C37.4823 19.54 36.6223 20.3991 36.6223 21.4594C36.6223 22.5194 37.4823 23.3794 38.5423 23.3794C39.6023 23.3794 40.4623 22.5194 40.4623 21.4594C40.4623 20.3994 39.6023 19.54 38.5423 19.54ZM30.0015 21.7834C25.4638 21.7834 21.7848 25.4625 21.7848 30.0001C21.7848 34.5379 25.4638 38.2153 30.0015 38.2153C34.5393 38.2153 38.2169 34.5379 38.2169 30.0001C38.2169 25.4625 34.5393 21.7834 30.0015 21.7834Z" fill="#3D786E"/>
<path fill-rule="evenodd" clip-rule="evenodd" d="M30.0015 24.6667C32.9469 24.6667 35.3349 27.0545 35.3349 30.0001C35.3349 32.9455 32.9469 35.3335 30.0015 35.3335C27.0558 35.3335 24.6682 32.9455 24.6682 30.0001C24.6682 27.0545 27.0558 24.6667 30.0015 24.6667Z" fill="#3D786E"/>
</g>
<defs>
<clipPath id="clip0_104_2">
<rect width="60" height="60" fill="white"/>
</clipPath>
</defs>
</svg>
